<mxfile host="Electron" modified="2024-03-16T07:31:38.628Z" agent="Mozilla/5.0 (Windows NT 10.0; Win64; x64) AppleWebKit/537.36 (KHTML, like Gecko) draw.io/23.1.5 Chrome/120.0.6099.109 Electron/28.1.0 Safari/537.36" etag="qWHsGY9TLaAFlOjp835r" version="23.1.5" type="device">
  <diagram name="Страница — 1" id="EQ2OE8ALPf1RlmZPFgjo">
    <mxGraphModel dx="1434" dy="836" grid="1" gridSize="10" guides="1" tooltips="1" connect="1" arrows="1" fold="1" page="1" pageScale="1" pageWidth="827" pageHeight="1169" math="0" shadow="0">
      <root>
        <mxCell id="0" />
        <mxCell id="1" parent="0" />
        <mxCell id="38HP3IzOZBY9DrxJzYLU-1" value="" style="shape=umlLifeline;perimeter=lifelinePerimeter;whiteSpace=wrap;html=1;container=1;dropTarget=0;collapsible=0;recursiveResize=0;outlineConnect=0;portConstraint=eastwest;newEdgeStyle={&quot;curved&quot;:0,&quot;rounded&quot;:0};participant=umlActor;" parent="1" vertex="1">
          <mxGeometry x="70" y="80" width="20" height="1070" as="geometry" />
        </mxCell>
        <mxCell id="38HP3IzOZBY9DrxJzYLU-4" value="" style="html=1;points=[[0,0,0,0,5],[0,1,0,0,-5],[1,0,0,0,5],[1,1,0,0,-5]];perimeter=orthogonalPerimeter;outlineConnect=0;targetShapes=umlLifeline;portConstraint=eastwest;newEdgeStyle={&quot;curved&quot;:0,&quot;rounded&quot;:0};" parent="38HP3IzOZBY9DrxJzYLU-1" vertex="1">
          <mxGeometry x="5" y="50" width="10" height="1010" as="geometry" />
        </mxCell>
        <mxCell id="38HP3IzOZBY9DrxJzYLU-2" value="Гость" style="text;html=1;align=center;verticalAlign=middle;whiteSpace=wrap;rounded=0;" parent="1" vertex="1">
          <mxGeometry x="30" y="110" width="60" height="30" as="geometry" />
        </mxCell>
        <mxCell id="38HP3IzOZBY9DrxJzYLU-3" value=":GUI" style="shape=umlLifeline;perimeter=lifelinePerimeter;whiteSpace=wrap;html=1;container=1;dropTarget=0;collapsible=0;recursiveResize=0;outlineConnect=0;portConstraint=eastwest;newEdgeStyle={&quot;curved&quot;:0,&quot;rounded&quot;:0};" parent="1" vertex="1">
          <mxGeometry x="230" y="80" width="100" height="1070" as="geometry" />
        </mxCell>
        <mxCell id="38HP3IzOZBY9DrxJzYLU-5" value="" style="html=1;points=[[0,0,0,0,5],[0,1,0,0,-5],[1,0,0,0,5],[1,1,0,0,-5]];perimeter=orthogonalPerimeter;outlineConnect=0;targetShapes=umlLifeline;portConstraint=eastwest;newEdgeStyle={&quot;curved&quot;:0,&quot;rounded&quot;:0};" parent="38HP3IzOZBY9DrxJzYLU-3" vertex="1">
          <mxGeometry x="45" y="50" width="10" height="40" as="geometry" />
        </mxCell>
        <mxCell id="38HP3IzOZBY9DrxJzYLU-16" value="" style="html=1;points=[[0,0,0,0,5],[0,1,0,0,-5],[1,0,0,0,5],[1,1,0,0,-5]];perimeter=orthogonalPerimeter;outlineConnect=0;targetShapes=umlLifeline;portConstraint=eastwest;newEdgeStyle={&quot;curved&quot;:0,&quot;rounded&quot;:0};" parent="38HP3IzOZBY9DrxJzYLU-3" vertex="1">
          <mxGeometry x="45" y="110" width="10" height="290" as="geometry" />
        </mxCell>
        <mxCell id="38HP3IzOZBY9DrxJzYLU-28" value="" style="html=1;points=[[0,0,0,0,5],[0,1,0,0,-5],[1,0,0,0,5],[1,1,0,0,-5]];perimeter=orthogonalPerimeter;outlineConnect=0;targetShapes=umlLifeline;portConstraint=eastwest;newEdgeStyle={&quot;curved&quot;:0,&quot;rounded&quot;:0};" parent="38HP3IzOZBY9DrxJzYLU-3" vertex="1">
          <mxGeometry x="51" y="230" width="10" height="40" as="geometry" />
        </mxCell>
        <mxCell id="38HP3IzOZBY9DrxJzYLU-29" value="деактивировать&lt;br&gt;кнопку&lt;br&gt;&quot;Восстановить&quot;" style="html=1;align=left;spacingLeft=2;endArrow=block;rounded=0;edgeStyle=orthogonalEdgeStyle;curved=0;rounded=0;" parent="38HP3IzOZBY9DrxJzYLU-3" source="38HP3IzOZBY9DrxJzYLU-16" target="38HP3IzOZBY9DrxJzYLU-28" edge="1">
          <mxGeometry relative="1" as="geometry">
            <mxPoint x="56" y="210" as="sourcePoint" />
            <Array as="points">
              <mxPoint x="86" y="210" />
              <mxPoint x="86" y="250" />
            </Array>
          </mxGeometry>
        </mxCell>
        <mxCell id="38HP3IzOZBY9DrxJzYLU-38" value="" style="html=1;points=[[0,0,0,0,5],[0,1,0,0,-5],[1,0,0,0,5],[1,1,0,0,-5]];perimeter=orthogonalPerimeter;outlineConnect=0;targetShapes=umlLifeline;portConstraint=eastwest;newEdgeStyle={&quot;curved&quot;:0,&quot;rounded&quot;:0};" parent="38HP3IzOZBY9DrxJzYLU-3" vertex="1">
          <mxGeometry x="45" y="430" width="10" height="630" as="geometry" />
        </mxCell>
        <mxCell id="38HP3IzOZBY9DrxJzYLU-84" value="&lt;b&gt;alt&lt;/b&gt;" style="shape=umlFrame;whiteSpace=wrap;html=1;pointerEvents=0;width=40;height=20;" parent="38HP3IzOZBY9DrxJzYLU-3" vertex="1">
          <mxGeometry x="-230" y="903" width="470" height="141" as="geometry" />
        </mxCell>
        <mxCell id="38HP3IzOZBY9DrxJzYLU-85" value="&lt;span style=&quot;color: rgb(0, 0, 0); font-family: Helvetica; font-size: 12px; font-style: normal; font-variant-ligatures: normal; font-variant-caps: normal; font-weight: 400; letter-spacing: normal; orphans: 2; text-align: center; text-indent: 0px; text-transform: none; widows: 2; word-spacing: 0px; -webkit-text-stroke-width: 0px; background-color: rgb(251, 251, 251); text-decoration-thickness: initial; text-decoration-style: initial; text-decoration-color: initial; float: none; display: inline !important;&quot;&gt;[успех]&lt;/span&gt;" style="text;whiteSpace=wrap;html=1;" parent="38HP3IzOZBY9DrxJzYLU-3" vertex="1">
          <mxGeometry x="-230" y="924" width="40" height="30" as="geometry" />
        </mxCell>
        <mxCell id="38HP3IzOZBY9DrxJzYLU-86" value="" style="html=1;points=[[0,0,0,0,5],[0,1,0,0,-5],[1,0,0,0,5],[1,1,0,0,-5]];perimeter=orthogonalPerimeter;outlineConnect=0;targetShapes=umlLifeline;portConstraint=eastwest;newEdgeStyle={&quot;curved&quot;:0,&quot;rounded&quot;:0};" parent="38HP3IzOZBY9DrxJzYLU-3" vertex="1">
          <mxGeometry x="51" y="934" width="10" height="40" as="geometry" />
        </mxCell>
        <mxCell id="38HP3IzOZBY9DrxJzYLU-87" value="переход к окну&lt;br&gt;&quot;На Ваш emai...&quot;" style="html=1;align=left;spacingLeft=2;endArrow=block;rounded=0;edgeStyle=orthogonalEdgeStyle;curved=0;rounded=0;" parent="38HP3IzOZBY9DrxJzYLU-3" target="38HP3IzOZBY9DrxJzYLU-86" edge="1">
          <mxGeometry relative="1" as="geometry">
            <mxPoint x="55" y="914" as="sourcePoint" />
            <Array as="points">
              <mxPoint x="86" y="914" />
              <mxPoint x="86" y="954" />
            </Array>
          </mxGeometry>
        </mxCell>
        <mxCell id="38HP3IzOZBY9DrxJzYLU-88" value="" style="endArrow=none;dashed=1;html=1;rounded=0;exitX=0;exitY=0.652;exitDx=0;exitDy=0;exitPerimeter=0;" parent="38HP3IzOZBY9DrxJzYLU-3" source="38HP3IzOZBY9DrxJzYLU-84" edge="1">
          <mxGeometry width="50" height="50" relative="1" as="geometry">
            <mxPoint x="-273" y="1004" as="sourcePoint" />
            <mxPoint x="240" y="995" as="targetPoint" />
          </mxGeometry>
        </mxCell>
        <mxCell id="38HP3IzOZBY9DrxJzYLU-89" value="Отобразить страницу" style="html=1;verticalAlign=bottom;endArrow=open;dashed=1;endSize=8;curved=0;rounded=0;" parent="38HP3IzOZBY9DrxJzYLU-3" edge="1">
          <mxGeometry relative="1" as="geometry">
            <mxPoint x="-145" y="985" as="targetPoint" />
            <mxPoint x="45" y="985" as="sourcePoint" />
          </mxGeometry>
        </mxCell>
        <mxCell id="38HP3IzOZBY9DrxJzYLU-90" value="Сообщить об ошибке" style="html=1;verticalAlign=bottom;endArrow=open;dashed=1;endSize=8;curved=0;rounded=0;exitX=0;exitY=1;exitDx=0;exitDy=-5;exitPerimeter=0;" parent="38HP3IzOZBY9DrxJzYLU-3" edge="1">
          <mxGeometry relative="1" as="geometry">
            <mxPoint x="-145" y="1029" as="targetPoint" />
            <mxPoint x="45" y="1029" as="sourcePoint" />
          </mxGeometry>
        </mxCell>
        <mxCell id="38HP3IzOZBY9DrxJzYLU-9" value="Переход к восстановлению пароля" style="html=1;verticalAlign=bottom;endArrow=block;curved=0;rounded=0;entryX=0;entryY=0;entryDx=0;entryDy=5;entryPerimeter=0;" parent="1" source="38HP3IzOZBY9DrxJzYLU-4" target="38HP3IzOZBY9DrxJzYLU-5" edge="1">
          <mxGeometry relative="1" as="geometry">
            <mxPoint x="340" y="295" as="sourcePoint" />
            <mxPoint x="410" y="295" as="targetPoint" />
            <mxPoint as="offset" />
          </mxGeometry>
        </mxCell>
        <mxCell id="38HP3IzOZBY9DrxJzYLU-10" value=":Валидатор GUI" style="shape=umlLifeline;perimeter=lifelinePerimeter;whiteSpace=wrap;html=1;container=1;dropTarget=0;collapsible=0;recursiveResize=0;outlineConnect=0;portConstraint=eastwest;newEdgeStyle={&quot;curved&quot;:0,&quot;rounded&quot;:0};" parent="1" vertex="1">
          <mxGeometry x="430" y="80" width="100" height="1070" as="geometry" />
        </mxCell>
        <mxCell id="38HP3IzOZBY9DrxJzYLU-20" value="" style="html=1;points=[[0,0,0,0,5],[0,1,0,0,-5],[1,0,0,0,5],[1,1,0,0,-5]];perimeter=orthogonalPerimeter;outlineConnect=0;targetShapes=umlLifeline;portConstraint=eastwest;newEdgeStyle={&quot;curved&quot;:0,&quot;rounded&quot;:0};" parent="38HP3IzOZBY9DrxJzYLU-10" vertex="1">
          <mxGeometry x="45" y="120" width="10" height="40" as="geometry" />
        </mxCell>
        <mxCell id="38HP3IzOZBY9DrxJzYLU-15" value="Форма восстановления пароля" style="html=1;verticalAlign=bottom;endArrow=open;dashed=1;endSize=8;curved=0;rounded=0;exitX=0;exitY=1;exitDx=0;exitDy=-5;exitPerimeter=0;" parent="1" source="38HP3IzOZBY9DrxJzYLU-5" target="38HP3IzOZBY9DrxJzYLU-4" edge="1">
          <mxGeometry relative="1" as="geometry">
            <mxPoint x="100" y="170" as="targetPoint" />
            <mxPoint x="170" y="170" as="sourcePoint" />
          </mxGeometry>
        </mxCell>
        <mxCell id="38HP3IzOZBY9DrxJzYLU-17" value="Заполнение поля email" style="html=1;verticalAlign=bottom;endArrow=block;curved=0;rounded=0;entryX=0;entryY=0;entryDx=0;entryDy=5;entryPerimeter=0;" parent="1" source="38HP3IzOZBY9DrxJzYLU-4" target="38HP3IzOZBY9DrxJzYLU-16" edge="1">
          <mxGeometry relative="1" as="geometry">
            <mxPoint x="95" y="145" as="sourcePoint" />
            <mxPoint x="245" y="145" as="targetPoint" />
          </mxGeometry>
        </mxCell>
        <mxCell id="38HP3IzOZBY9DrxJzYLU-21" value="Валидация полей" style="html=1;verticalAlign=bottom;endArrow=block;curved=0;rounded=0;entryX=0;entryY=0;entryDx=0;entryDy=5;entryPerimeter=0;" parent="1" source="38HP3IzOZBY9DrxJzYLU-16" target="38HP3IzOZBY9DrxJzYLU-20" edge="1">
          <mxGeometry relative="1" as="geometry">
            <mxPoint x="245" y="205" as="sourcePoint" />
            <mxPoint x="570" y="365" as="targetPoint" />
          </mxGeometry>
        </mxCell>
        <mxCell id="38HP3IzOZBY9DrxJzYLU-22" value="Результат валидации" style="html=1;verticalAlign=bottom;endArrow=open;dashed=1;endSize=8;curved=0;rounded=0;exitX=0;exitY=1;exitDx=0;exitDy=-5;exitPerimeter=0;" parent="1" source="38HP3IzOZBY9DrxJzYLU-20" target="38HP3IzOZBY9DrxJzYLU-16" edge="1">
          <mxGeometry relative="1" as="geometry">
            <mxPoint x="245" y="235" as="targetPoint" />
            <mxPoint x="330" y="240" as="sourcePoint" />
          </mxGeometry>
        </mxCell>
        <mxCell id="38HP3IzOZBY9DrxJzYLU-23" value="&lt;b&gt;alt&lt;/b&gt;" style="shape=umlFrame;whiteSpace=wrap;html=1;pointerEvents=0;width=40;height=20;" parent="1" vertex="1">
          <mxGeometry x="100" y="240" width="370" height="250" as="geometry" />
        </mxCell>
        <mxCell id="38HP3IzOZBY9DrxJzYLU-24" value="[поле невалидно]" style="text;html=1;align=center;verticalAlign=middle;whiteSpace=wrap;rounded=0;" parent="1" vertex="1">
          <mxGeometry x="100" y="250" width="100" height="30" as="geometry" />
        </mxCell>
        <mxCell id="38HP3IzOZBY9DrxJzYLU-26" value="&lt;b&gt;opt&lt;/b&gt;" style="shape=umlFrame;whiteSpace=wrap;html=1;pointerEvents=0;width=40;height=20;" parent="1" vertex="1">
          <mxGeometry x="110" y="280" width="350" height="80" as="geometry" />
        </mxCell>
        <mxCell id="38HP3IzOZBY9DrxJzYLU-27" value="[кнопка &quot;Восстановить&quot;&lt;br style=&quot;border-color: var(--border-color);&quot;&gt;активна]" style="text;html=1;align=center;verticalAlign=middle;whiteSpace=wrap;rounded=0;" parent="1" vertex="1">
          <mxGeometry x="120" y="300" width="100" height="30" as="geometry" />
        </mxCell>
        <mxCell id="38HP3IzOZBY9DrxJzYLU-30" value="Сообщить об ошибке" style="html=1;verticalAlign=bottom;endArrow=open;dashed=1;endSize=8;curved=0;rounded=0;exitX=0;exitY=1;exitDx=0;exitDy=-5;exitPerimeter=0;" parent="1" edge="1">
          <mxGeometry relative="1" as="geometry">
            <mxPoint x="85" y="380" as="targetPoint" />
            <mxPoint x="275" y="380" as="sourcePoint" />
          </mxGeometry>
        </mxCell>
        <mxCell id="38HP3IzOZBY9DrxJzYLU-31" value="" style="endArrow=none;dashed=1;html=1;rounded=0;exitX=-0.005;exitY=0.542;exitDx=0;exitDy=0;exitPerimeter=0;entryX=1.005;entryY=0.542;entryDx=0;entryDy=0;entryPerimeter=0;" parent="1" edge="1">
          <mxGeometry width="50" height="50" relative="1" as="geometry">
            <mxPoint x="98.15000000000009" y="388.5" as="sourcePoint" />
            <mxPoint x="471.8499999999999" y="388.5" as="targetPoint" />
          </mxGeometry>
        </mxCell>
        <mxCell id="38HP3IzOZBY9DrxJzYLU-32" value="[поле валидно]" style="text;html=1;align=center;verticalAlign=middle;whiteSpace=wrap;rounded=0;" parent="1" vertex="1">
          <mxGeometry x="100" y="400" width="100" height="30" as="geometry" />
        </mxCell>
        <mxCell id="38HP3IzOZBY9DrxJzYLU-33" value="" style="html=1;points=[[0,0,0,0,5],[0,1,0,0,-5],[1,0,0,0,5],[1,1,0,0,-5]];perimeter=orthogonalPerimeter;outlineConnect=0;targetShapes=umlLifeline;portConstraint=eastwest;newEdgeStyle={&quot;curved&quot;:0,&quot;rounded&quot;:0};" parent="1" vertex="1">
          <mxGeometry x="281" y="426" width="10" height="40" as="geometry" />
        </mxCell>
        <mxCell id="38HP3IzOZBY9DrxJzYLU-34" value="активировать&lt;br&gt;кнопку&lt;br&gt;&quot;Восстановить&quot;" style="html=1;align=left;spacingLeft=2;endArrow=block;rounded=0;edgeStyle=orthogonalEdgeStyle;curved=0;rounded=0;" parent="1" target="38HP3IzOZBY9DrxJzYLU-33" edge="1">
          <mxGeometry relative="1" as="geometry">
            <mxPoint x="285" y="406" as="sourcePoint" />
            <Array as="points">
              <mxPoint x="316" y="406" />
              <mxPoint x="316" y="446" />
            </Array>
          </mxGeometry>
        </mxCell>
        <mxCell id="38HP3IzOZBY9DrxJzYLU-37" value="Отобразить поле" style="html=1;verticalAlign=bottom;endArrow=open;dashed=1;endSize=8;curved=0;rounded=0;exitX=0;exitY=1;exitDx=0;exitDy=-5;exitPerimeter=0;" parent="1" source="38HP3IzOZBY9DrxJzYLU-16" target="38HP3IzOZBY9DrxJzYLU-4" edge="1">
          <mxGeometry relative="1" as="geometry">
            <mxPoint x="85" y="524" as="targetPoint" />
            <mxPoint x="275" y="524" as="sourcePoint" />
          </mxGeometry>
        </mxCell>
        <mxCell id="38HP3IzOZBY9DrxJzYLU-39" value="Нажать на &quot;Войти&quot;" style="html=1;verticalAlign=bottom;endArrow=block;curved=0;rounded=0;entryX=0;entryY=0;entryDx=0;entryDy=5;entryPerimeter=0;" parent="1" source="38HP3IzOZBY9DrxJzYLU-4" target="38HP3IzOZBY9DrxJzYLU-38" edge="1">
          <mxGeometry relative="1" as="geometry">
            <mxPoint x="85" y="565" as="sourcePoint" />
            <mxPoint x="410" y="725" as="targetPoint" />
          </mxGeometry>
        </mxCell>
        <mxCell id="38HP3IzOZBY9DrxJzYLU-41" value=":Обработчик команд" style="shape=umlLifeline;perimeter=lifelinePerimeter;whiteSpace=wrap;html=1;container=1;dropTarget=0;collapsible=0;recursiveResize=0;outlineConnect=0;portConstraint=eastwest;newEdgeStyle={&quot;curved&quot;:0,&quot;rounded&quot;:0};" parent="1" vertex="1">
          <mxGeometry x="630" y="80" width="100" height="1070" as="geometry" />
        </mxCell>
        <mxCell id="38HP3IzOZBY9DrxJzYLU-42" value="" style="html=1;points=[[0,0,0,0,5],[0,1,0,0,-5],[1,0,0,0,5],[1,1,0,0,-5]];perimeter=orthogonalPerimeter;outlineConnect=0;targetShapes=umlLifeline;portConstraint=eastwest;newEdgeStyle={&quot;curved&quot;:0,&quot;rounded&quot;:0};" parent="38HP3IzOZBY9DrxJzYLU-41" vertex="1">
          <mxGeometry x="45" y="440" width="10" height="460" as="geometry" />
        </mxCell>
        <mxCell id="38HP3IzOZBY9DrxJzYLU-43" value="HTTP-запрос" style="html=1;verticalAlign=bottom;endArrow=block;curved=0;rounded=0;entryX=0;entryY=0;entryDx=0;entryDy=5;entryPerimeter=0;" parent="1" source="38HP3IzOZBY9DrxJzYLU-38" target="38HP3IzOZBY9DrxJzYLU-42" edge="1">
          <mxGeometry x="-0.7179" y="5" relative="1" as="geometry">
            <mxPoint x="370" y="584" as="sourcePoint" />
            <mxPoint x="560" y="584" as="targetPoint" />
            <mxPoint as="offset" />
          </mxGeometry>
        </mxCell>
        <mxCell id="38HP3IzOZBY9DrxJzYLU-44" value=":Валидатор сервера" style="shape=umlLifeline;perimeter=lifelinePerimeter;whiteSpace=wrap;html=1;container=1;dropTarget=0;collapsible=0;recursiveResize=0;outlineConnect=0;portConstraint=eastwest;newEdgeStyle={&quot;curved&quot;:0,&quot;rounded&quot;:0};" parent="1" vertex="1">
          <mxGeometry x="830" y="80" width="100" height="1070" as="geometry" />
        </mxCell>
        <mxCell id="38HP3IzOZBY9DrxJzYLU-45" value="" style="html=1;points=[[0,0,0,0,5],[0,1,0,0,-5],[1,0,0,0,5],[1,1,0,0,-5]];perimeter=orthogonalPerimeter;outlineConnect=0;targetShapes=umlLifeline;portConstraint=eastwest;newEdgeStyle={&quot;curved&quot;:0,&quot;rounded&quot;:0};" parent="38HP3IzOZBY9DrxJzYLU-44" vertex="1">
          <mxGeometry x="45" y="453" width="10" height="167" as="geometry" />
        </mxCell>
        <mxCell id="38HP3IzOZBY9DrxJzYLU-46" value="Валидация запроса" style="html=1;verticalAlign=bottom;endArrow=block;curved=0;rounded=0;entryX=0;entryY=0;entryDx=0;entryDy=5;entryPerimeter=0;" parent="1" edge="1">
          <mxGeometry x="-0.4211" relative="1" as="geometry">
            <mxPoint x="685" y="539" as="sourcePoint" />
            <mxPoint x="875" y="539" as="targetPoint" />
            <mxPoint as="offset" />
          </mxGeometry>
        </mxCell>
        <mxCell id="38HP3IzOZBY9DrxJzYLU-47" value=":Коннектор с БД" style="shape=umlLifeline;perimeter=lifelinePerimeter;whiteSpace=wrap;html=1;container=1;dropTarget=0;collapsible=0;recursiveResize=0;outlineConnect=0;portConstraint=eastwest;newEdgeStyle={&quot;curved&quot;:0,&quot;rounded&quot;:0};" parent="1" vertex="1">
          <mxGeometry x="1030" y="80" width="100" height="1070" as="geometry" />
        </mxCell>
        <mxCell id="38HP3IzOZBY9DrxJzYLU-48" value="" style="html=1;points=[[0,0,0,0,5],[0,1,0,0,-5],[1,0,0,0,5],[1,1,0,0,-5]];perimeter=orthogonalPerimeter;outlineConnect=0;targetShapes=umlLifeline;portConstraint=eastwest;newEdgeStyle={&quot;curved&quot;:0,&quot;rounded&quot;:0};" parent="38HP3IzOZBY9DrxJzYLU-47" vertex="1">
          <mxGeometry x="45" y="464" width="10" height="60" as="geometry" />
        </mxCell>
        <mxCell id="38HP3IzOZBY9DrxJzYLU-49" value=":БД" style="shape=umlLifeline;perimeter=lifelinePerimeter;whiteSpace=wrap;html=1;container=1;dropTarget=0;collapsible=0;recursiveResize=0;outlineConnect=0;portConstraint=eastwest;newEdgeStyle={&quot;curved&quot;:0,&quot;rounded&quot;:0};" parent="1" vertex="1">
          <mxGeometry x="1230" y="80" width="100" height="1070" as="geometry" />
        </mxCell>
        <mxCell id="38HP3IzOZBY9DrxJzYLU-58" value="" style="html=1;points=[[0,0,0,0,5],[0,1,0,0,-5],[1,0,0,0,5],[1,1,0,0,-5]];perimeter=orthogonalPerimeter;outlineConnect=0;targetShapes=umlLifeline;portConstraint=eastwest;newEdgeStyle={&quot;curved&quot;:0,&quot;rounded&quot;:0};" parent="38HP3IzOZBY9DrxJzYLU-49" vertex="1">
          <mxGeometry x="45" y="474" width="10" height="40" as="geometry" />
        </mxCell>
        <mxCell id="J8reJ44I3U6G_yb-iDPF-12" value="" style="html=1;points=[[0,0,0,0,5],[0,1,0,0,-5],[1,0,0,0,5],[1,1,0,0,-5]];perimeter=orthogonalPerimeter;outlineConnect=0;targetShapes=umlLifeline;portConstraint=eastwest;newEdgeStyle={&quot;curved&quot;:0,&quot;rounded&quot;:0};" parent="38HP3IzOZBY9DrxJzYLU-49" vertex="1">
          <mxGeometry x="45" y="710" width="10" height="40" as="geometry" />
        </mxCell>
        <mxCell id="38HP3IzOZBY9DrxJzYLU-51" value="Получить пользователя по email" style="html=1;verticalAlign=bottom;endArrow=block;curved=0;rounded=0;entryX=0;entryY=0;entryDx=0;entryDy=5;entryPerimeter=0;" parent="1" target="38HP3IzOZBY9DrxJzYLU-48" edge="1">
          <mxGeometry x="-0.1053" y="6" relative="1" as="geometry">
            <mxPoint x="885" y="549" as="sourcePoint" />
            <mxPoint x="885" y="549" as="targetPoint" />
            <mxPoint as="offset" />
          </mxGeometry>
        </mxCell>
        <mxCell id="38HP3IzOZBY9DrxJzYLU-59" value="Запрос данных о пользователе" style="html=1;verticalAlign=bottom;endArrow=block;curved=0;rounded=0;entryX=0;entryY=0;entryDx=0;entryDy=5;entryPerimeter=0;" parent="1" source="38HP3IzOZBY9DrxJzYLU-48" target="38HP3IzOZBY9DrxJzYLU-58" edge="1">
          <mxGeometry x="-0.1053" y="6" relative="1" as="geometry">
            <mxPoint x="895" y="559" as="sourcePoint" />
            <mxPoint x="1085" y="559" as="targetPoint" />
            <mxPoint as="offset" />
          </mxGeometry>
        </mxCell>
        <mxCell id="38HP3IzOZBY9DrxJzYLU-60" value="Ответ" style="html=1;verticalAlign=bottom;endArrow=open;dashed=1;endSize=8;curved=0;rounded=0;exitX=0;exitY=1;exitDx=0;exitDy=-5;exitPerimeter=0;" parent="1" edge="1">
          <mxGeometry x="0.2105" relative="1" as="geometry">
            <mxPoint x="1085" y="590" as="targetPoint" />
            <mxPoint x="1275" y="590" as="sourcePoint" />
            <mxPoint as="offset" />
          </mxGeometry>
        </mxCell>
        <mxCell id="38HP3IzOZBY9DrxJzYLU-61" value="Ответ" style="html=1;verticalAlign=bottom;endArrow=open;dashed=1;endSize=8;curved=0;rounded=0;exitX=0;exitY=1;exitDx=0;exitDy=-5;exitPerimeter=0;" parent="1" edge="1">
          <mxGeometry x="0.2105" relative="1" as="geometry">
            <mxPoint x="885" y="600" as="targetPoint" />
            <mxPoint x="1075" y="600" as="sourcePoint" />
            <mxPoint as="offset" />
          </mxGeometry>
        </mxCell>
        <mxCell id="38HP3IzOZBY9DrxJzYLU-62" value="&lt;b&gt;alt&lt;/b&gt;" style="shape=umlFrame;whiteSpace=wrap;html=1;pointerEvents=0;width=40;height=20;" parent="1" vertex="1">
          <mxGeometry x="490" y="615" width="1230" height="335" as="geometry" />
        </mxCell>
        <mxCell id="38HP3IzOZBY9DrxJzYLU-63" value="[пользователь не найден]" style="text;html=1;align=center;verticalAlign=middle;whiteSpace=wrap;rounded=0;" parent="1" vertex="1">
          <mxGeometry x="510" y="635" width="70" height="30" as="geometry" />
        </mxCell>
        <mxCell id="38HP3IzOZBY9DrxJzYLU-64" value="Ошибка валидации" style="html=1;verticalAlign=bottom;endArrow=open;dashed=1;endSize=8;curved=0;rounded=0;" parent="1" edge="1">
          <mxGeometry x="0.3158" relative="1" as="geometry">
            <mxPoint x="685" y="635" as="targetPoint" />
            <mxPoint x="875" y="635" as="sourcePoint" />
            <mxPoint as="offset" />
          </mxGeometry>
        </mxCell>
        <mxCell id="38HP3IzOZBY9DrxJzYLU-66" value="" style="endArrow=none;dashed=1;html=1;rounded=0;exitX=-0.001;exitY=0.13;exitDx=0;exitDy=0;exitPerimeter=0;entryX=1.002;entryY=0.134;entryDx=0;entryDy=0;entryPerimeter=0;" parent="1" edge="1">
          <mxGeometry width="50" height="50" relative="1" as="geometry">
            <mxPoint x="488.77" y="668.5500000000002" as="sourcePoint" />
            <mxPoint x="1722.46" y="669.8900000000001" as="targetPoint" />
          </mxGeometry>
        </mxCell>
        <mxCell id="38HP3IzOZBY9DrxJzYLU-67" value="[else]" style="text;html=1;align=center;verticalAlign=middle;whiteSpace=wrap;rounded=0;" parent="1" vertex="1">
          <mxGeometry x="490" y="665" width="50" height="30" as="geometry" />
        </mxCell>
        <mxCell id="38HP3IzOZBY9DrxJzYLU-75" value="Ответ" style="html=1;verticalAlign=bottom;endArrow=open;dashed=1;endSize=8;curved=0;rounded=0;exitX=0;exitY=1;exitDx=0;exitDy=-5;exitPerimeter=0;" parent="1" source="38HP3IzOZBY9DrxJzYLU-42" target="38HP3IzOZBY9DrxJzYLU-38" edge="1">
          <mxGeometry x="0.8205" relative="1" as="geometry">
            <mxPoint x="285" y="969" as="targetPoint" />
            <mxPoint x="675" y="969" as="sourcePoint" />
            <mxPoint as="offset" />
          </mxGeometry>
        </mxCell>
        <mxCell id="x03UTDk3xZk1rhKEXxxw-3" value="Успех" style="html=1;verticalAlign=bottom;endArrow=open;dashed=1;endSize=8;curved=0;rounded=0;exitX=0;exitY=1;exitDx=0;exitDy=-5;exitPerimeter=0;" parent="1" source="38HP3IzOZBY9DrxJzYLU-45" target="38HP3IzOZBY9DrxJzYLU-42" edge="1">
          <mxGeometry x="0.6316" y="-5" relative="1" as="geometry">
            <mxPoint x="685" y="747.9999999999998" as="targetPoint" />
            <mxPoint x="870" y="743" as="sourcePoint" />
            <mxPoint as="offset" />
          </mxGeometry>
        </mxCell>
        <mxCell id="J8reJ44I3U6G_yb-iDPF-1" value="&lt;b&gt;opt&lt;/b&gt;" style="shape=umlFrame;whiteSpace=wrap;html=1;pointerEvents=0;width=40;height=20;" parent="1" vertex="1">
          <mxGeometry x="500" y="710" width="810" height="140" as="geometry" />
        </mxCell>
        <mxCell id="J8reJ44I3U6G_yb-iDPF-2" value="[У пользователя не сгенерирован UUID]" style="text;html=1;align=center;verticalAlign=middle;whiteSpace=wrap;rounded=0;" parent="1" vertex="1">
          <mxGeometry x="500" y="740" width="100" height="30" as="geometry" />
        </mxCell>
        <mxCell id="J8reJ44I3U6G_yb-iDPF-8" value="" style="html=1;points=[[0,0,0,0,5],[0,1,0,0,-5],[1,0,0,0,5],[1,1,0,0,-5]];perimeter=orthogonalPerimeter;outlineConnect=0;targetShapes=umlLifeline;portConstraint=eastwest;newEdgeStyle={&quot;curved&quot;:0,&quot;rounded&quot;:0};" parent="1" vertex="1">
          <mxGeometry x="680" y="737.5" width="10" height="40" as="geometry" />
        </mxCell>
        <mxCell id="J8reJ44I3U6G_yb-iDPF-9" value="генерация UUID" style="html=1;align=left;spacingLeft=2;endArrow=block;rounded=0;edgeStyle=orthogonalEdgeStyle;curved=0;rounded=0;" parent="1" target="J8reJ44I3U6G_yb-iDPF-8" edge="1">
          <mxGeometry relative="1" as="geometry">
            <mxPoint x="684" y="717.5" as="sourcePoint" />
            <Array as="points">
              <mxPoint x="715" y="717.5" />
              <mxPoint x="715" y="757.5" />
            </Array>
          </mxGeometry>
        </mxCell>
        <mxCell id="J8reJ44I3U6G_yb-iDPF-17" value="Записать UUID" style="html=1;verticalAlign=bottom;endArrow=block;curved=0;rounded=0;entryX=0;entryY=0;entryDx=0;entryDy=5;entryPerimeter=0;" parent="1" source="38HP3IzOZBY9DrxJzYLU-42" target="J8reJ44I3U6G_yb-iDPF-11" edge="1">
          <mxGeometry x="-0.6667" y="5" relative="1" as="geometry">
            <mxPoint x="685" y="801.5" as="sourcePoint" />
            <mxPoint x="875.0000000000002" y="801.5" as="targetPoint" />
            <mxPoint as="offset" />
          </mxGeometry>
        </mxCell>
        <mxCell id="J8reJ44I3U6G_yb-iDPF-11" value="" style="html=1;points=[[0,0,0,0,5],[0,1,0,0,-5],[1,0,0,0,5],[1,1,0,0,-5]];perimeter=orthogonalPerimeter;outlineConnect=0;targetShapes=umlLifeline;portConstraint=eastwest;newEdgeStyle={&quot;curved&quot;:0,&quot;rounded&quot;:0};" parent="1" vertex="1">
          <mxGeometry x="1075" y="780" width="10" height="60" as="geometry" />
        </mxCell>
        <mxCell id="J8reJ44I3U6G_yb-iDPF-14" value="Обновление данных о пользователе" style="html=1;verticalAlign=bottom;endArrow=block;curved=0;rounded=0;entryX=0;entryY=0;entryDx=0;entryDy=5;entryPerimeter=0;" parent="1" source="J8reJ44I3U6G_yb-iDPF-11" target="J8reJ44I3U6G_yb-iDPF-12" edge="1">
          <mxGeometry y="5" relative="1" as="geometry">
            <mxPoint x="895" y="822.5" as="sourcePoint" />
            <mxPoint x="1085" y="822.5" as="targetPoint" />
            <mxPoint as="offset" />
          </mxGeometry>
        </mxCell>
        <mxCell id="J8reJ44I3U6G_yb-iDPF-15" value="Ответ" style="html=1;verticalAlign=bottom;endArrow=open;dashed=1;endSize=8;curved=0;rounded=0;exitX=0;exitY=1;exitDx=0;exitDy=-5;exitPerimeter=0;" parent="1" source="J8reJ44I3U6G_yb-iDPF-12" target="J8reJ44I3U6G_yb-iDPF-11" edge="1">
          <mxGeometry x="0.2105" relative="1" as="geometry">
            <mxPoint x="1085" y="853.5" as="targetPoint" />
            <mxPoint x="1275" y="853.5" as="sourcePoint" />
            <mxPoint as="offset" />
          </mxGeometry>
        </mxCell>
        <mxCell id="J8reJ44I3U6G_yb-iDPF-18" value="Ответ" style="html=1;verticalAlign=bottom;endArrow=open;dashed=1;endSize=8;curved=0;rounded=0;exitX=0;exitY=1;exitDx=0;exitDy=-5;exitPerimeter=0;" parent="1" source="J8reJ44I3U6G_yb-iDPF-11" target="38HP3IzOZBY9DrxJzYLU-42" edge="1">
          <mxGeometry x="0.8205" y="-5" relative="1" as="geometry">
            <mxPoint x="1095" y="835" as="targetPoint" />
            <mxPoint x="1285" y="835" as="sourcePoint" />
            <mxPoint as="offset" />
          </mxGeometry>
        </mxCell>
        <mxCell id="J8reJ44I3U6G_yb-iDPF-22" value=":Коннектор с почтовым сервером" style="shape=umlLifeline;perimeter=lifelinePerimeter;whiteSpace=wrap;html=1;container=1;dropTarget=0;collapsible=0;recursiveResize=0;outlineConnect=0;portConstraint=eastwest;newEdgeStyle={&quot;curved&quot;:0,&quot;rounded&quot;:0};" parent="1" vertex="1">
          <mxGeometry x="1430" y="80" width="100" height="1070" as="geometry" />
        </mxCell>
        <mxCell id="J8reJ44I3U6G_yb-iDPF-23" value="" style="shape=umlLifeline;perimeter=lifelinePerimeter;whiteSpace=wrap;html=1;container=1;dropTarget=0;collapsible=0;recursiveResize=0;outlineConnect=0;portConstraint=eastwest;newEdgeStyle={&quot;curved&quot;:0,&quot;rounded&quot;:0};participant=umlActor;" parent="1" vertex="1">
          <mxGeometry x="1670" y="80" width="20" height="1070" as="geometry" />
        </mxCell>
        <mxCell id="J8reJ44I3U6G_yb-iDPF-26" value="" style="html=1;points=[[0,0,0,0,5],[0,1,0,0,-5],[1,0,0,0,5],[1,1,0,0,-5]];perimeter=orthogonalPerimeter;outlineConnect=0;targetShapes=umlLifeline;portConstraint=eastwest;newEdgeStyle={&quot;curved&quot;:0,&quot;rounded&quot;:0};" parent="J8reJ44I3U6G_yb-iDPF-23" vertex="1">
          <mxGeometry x="5" y="810" width="10" height="40" as="geometry" />
        </mxCell>
        <mxCell id="J8reJ44I3U6G_yb-iDPF-28" value="" style="html=1;points=[[0,0,0,0,5],[0,1,0,0,-5],[1,0,0,0,5],[1,1,0,0,-5]];perimeter=orthogonalPerimeter;outlineConnect=0;targetShapes=umlLifeline;portConstraint=eastwest;newEdgeStyle={&quot;curved&quot;:0,&quot;rounded&quot;:0};" parent="J8reJ44I3U6G_yb-iDPF-23" vertex="1">
          <mxGeometry x="-195" y="800" width="10" height="60" as="geometry" />
        </mxCell>
        <mxCell id="J8reJ44I3U6G_yb-iDPF-29" value="Отправка письма" style="html=1;verticalAlign=bottom;endArrow=block;curved=0;rounded=0;entryX=0;entryY=0;entryDx=0;entryDy=5;entryPerimeter=0;" parent="J8reJ44I3U6G_yb-iDPF-23" source="J8reJ44I3U6G_yb-iDPF-28" target="J8reJ44I3U6G_yb-iDPF-26" edge="1">
          <mxGeometry x="-0.3158" y="5" relative="1" as="geometry">
            <mxPoint x="-375" y="842.5" as="sourcePoint" />
            <mxPoint x="-185" y="842.5" as="targetPoint" />
            <mxPoint as="offset" />
          </mxGeometry>
        </mxCell>
        <mxCell id="J8reJ44I3U6G_yb-iDPF-30" value="Ответ" style="html=1;verticalAlign=bottom;endArrow=open;dashed=1;endSize=8;curved=0;rounded=0;exitX=0;exitY=1;exitDx=0;exitDy=-5;exitPerimeter=0;" parent="J8reJ44I3U6G_yb-iDPF-23" source="J8reJ44I3U6G_yb-iDPF-26" target="J8reJ44I3U6G_yb-iDPF-28" edge="1">
          <mxGeometry x="0.2105" relative="1" as="geometry">
            <mxPoint x="-185" y="873.5" as="targetPoint" />
            <mxPoint x="5" y="873.5" as="sourcePoint" />
            <mxPoint as="offset" />
          </mxGeometry>
        </mxCell>
        <mxCell id="J8reJ44I3U6G_yb-iDPF-24" value="Почтовый сервер" style="text;html=1;align=center;verticalAlign=middle;whiteSpace=wrap;rounded=0;" parent="1" vertex="1">
          <mxGeometry x="1620" y="120" width="60" height="30" as="geometry" />
        </mxCell>
        <mxCell id="J8reJ44I3U6G_yb-iDPF-27" value="Отправить письмо для восстановления" style="html=1;verticalAlign=bottom;endArrow=block;curved=0;rounded=0;entryX=0;entryY=0;entryDx=0;entryDy=5;entryPerimeter=0;" parent="1" source="38HP3IzOZBY9DrxJzYLU-42" target="J8reJ44I3U6G_yb-iDPF-28" edge="1">
          <mxGeometry x="-0.7342" y="5" relative="1" as="geometry">
            <mxPoint x="1085" y="885" as="sourcePoint" />
            <mxPoint x="1275.0000000000002" y="901.5" as="targetPoint" />
            <mxPoint as="offset" />
          </mxGeometry>
        </mxCell>
        <mxCell id="J8reJ44I3U6G_yb-iDPF-31" value="Ответ" style="html=1;verticalAlign=bottom;endArrow=open;dashed=1;endSize=8;curved=0;rounded=0;exitX=0;exitY=1;exitDx=0;exitDy=-5;exitPerimeter=0;" parent="1" source="J8reJ44I3U6G_yb-iDPF-28" target="38HP3IzOZBY9DrxJzYLU-42" edge="1">
          <mxGeometry x="0.8205" y="-5" relative="1" as="geometry">
            <mxPoint x="1085" y="935" as="targetPoint" />
            <mxPoint x="1685" y="935" as="sourcePoint" />
            <mxPoint as="offset" />
          </mxGeometry>
        </mxCell>
        <mxCell id="gU1YJd07yvTfUvSHfvJW-1" value="&lt;span style=&quot;color: rgb(0, 0, 0); font-family: Helvetica; font-size: 12px; font-style: normal; font-variant-ligatures: normal; font-variant-caps: normal; font-weight: 400; letter-spacing: normal; orphans: 2; text-align: center; text-indent: 0px; text-transform: none; widows: 2; word-spacing: 0px; -webkit-text-stroke-width: 0px; background-color: rgb(251, 251, 251); text-decoration-thickness: initial; text-decoration-style: initial; text-decoration-color: initial; float: none; display: inline !important;&quot;&gt;[пока email не заполнен корректно]&lt;/span&gt;" style="text;whiteSpace=wrap;html=1;" vertex="1" parent="1">
          <mxGeometry y="200" width="70" height="40" as="geometry" />
        </mxCell>
        <mxCell id="gU1YJd07yvTfUvSHfvJW-2" value="&lt;b&gt;alt&lt;/b&gt;" style="shape=umlFrame;whiteSpace=wrap;html=1;pointerEvents=0;width=40;height=20;" vertex="1" parent="1">
          <mxGeometry y="180" width="530" height="320" as="geometry" />
        </mxCell>
      </root>
    </mxGraphModel>
  </diagram>
</mxfile>
